#!OML:ASF F:\VICON\USERDATA\INSTALL\rory3\rory3.ASF
:FULLY-SPECIFIED
:DEGREES
3309
root 8.59922 17.868 7.00078 541.648 -18.0236 174.579
lowerback 12.2171 1.18955 2.22563
upperback 1.75629 1.72885 0.187121
thorax -4.9422 0.748228 -1.33358
lowerneck -16.3945 5.02351 -11.5948
upperneck 43.4022 6.86652 1.7296
head 18.7695 -0.485756 3.71998
rclavicle 2.18663e-014 -7.95139e-016
rhumerus -35.9042 -12.6234 -70.2241
rradius 41.0212
rwrist 3.65991
rhand -15.1407 10.6205
rfingers 7.12502
rthumb 11.0291 -19.0697
lclavicle 2.18663e-014 -7.95139e-016
lhumerus -36.5362 13.4337 77.5189
lradius 34.5218
lwrist -7.13417
lhand -22.4098 18.7561
lfingers 7.12502
lthumb 4.01307 48.6981
rfemur -8.16024 -2.10345 15.3094
rtibia 33.7895
rfoot -20.7822 -2.94339
rtoes -1.66295
lfemur -12.3273 -2.59854 -24.616
ltibia 30.4609
lfoot -17.3131 0.128763
ltoes -8.08056
3310
root 8.56591 17.8765 7.04443 541.591 -17.9646 174.582
lowerback 12.1851 1.16643 2.21436
upperback 1.83578 1.69026 0.207628
thorax -4.84335 0.729271 -1.2975
lowerneck -16.4881 5.00107 -11.5845
upperneck 43.428 6.82344 1.78289
head 18.8117 -0.49629 3.74106
rclavicle -2.88238e-014 -9.54166e-015
rhumerus -35.6168 -13.0377 -70.0618
rradius 40.9248
rwrist 3.38163
rhand -15.4096 10.4771
rfingers 7.12502
rthumb 10.7697 -19.2268
lclavicle -2.88238e-014 -9.54166e-015
lhumerus -36.5683 13.2008 77.6001
lradius 34.7285
lwrist -6.75706
lhand -22.3958 18.6633
lfingers 7.12502
lthumb 4.02656 48.605
rfemur -8.03153 -2.0559 15.1159
rtibia 33.5232
rfoot -20.6222 -2.84029
rtoes -2.3183
lfemur -12.3044 -2.87819 -24.2184
ltibia 30.6521
lfoot -16.9518 0.489075
ltoes -7.61222
3311
root 8.53398 17.8842 7.08954 541.397 -17.9221 174.686
lowerback 12.3632 1.14112 2.29288
upperback 1.89236 1.66607 0.262535
thorax -4.88249 0.712894 -1.28365
lowerneck -16.5215 4.9235 -11.6367
upperneck 43.4038 6.68814 1.8787
head 18.8096 -0.540735 3.77328
rclavicle 2.14687e-014 1.59028e-014
rhumerus -35.4212 -13.3788 -69.9095
rradius 40.8502
rwrist 2.9458
rhand -15.7854 10.3231
rfingers 7.12502
rthumb 10.4072 -19.3994
lclavicle 2.14687e-014 1.59028e-014
lhumerus -36.6637 13.0641 77.6598
lradius 34.907
lwrist -6.37416
lhand -22.4652 18.5741
lfingers 7.12502
lthumb 3.95957 48.517
rfemur -7.82382 -1.94616 15.0503
rtibia 33.2747
rfoot -20.5829 -2.85115
rtoes -3.23887
lfemur -12.1669 -3.0722 -23.694
ltibia 30.8034
lfoot -16.6454 0.744164
ltoes -7.40165
3312
root 8.50288 17.8935 7.1339 541.327 -17.8946 174.541
lowerback 12.5492 1.15818 2.13099
upperback 1.9076 1.66672 0.232964
thorax -4.97319 0.713147 -1.22765
lowerneck -16.4284 4.82663 -11.6361
upperneck 43.3388 6.47195 1.98112
head 18.7568 -0.601505 3.77933
rclavicle -2.5842e-015 7.15625e-015
rhumerus -35.4779 -13.8201 -69.7325
rradius 41.06
rwrist 2.51971
rhand -15.9449 10.008
rfingers 7.12502
rthumb 10.2534 -19.7221
lclavicle -2.5842e-015 7.15625e-015
lhumerus -36.756 12.8995 77.6664
lradius 35.1026
lwrist -6.10285
lhand -22.4381 18.6519
lfingers 7.12502
lthumb 3.98569 48.5944
rfemur -7.70163 -1.93474 14.7196
rtibia 33.0271
rfoot -20.434 -2.82609
rtoes -4.25313
lfemur -12.0347 -3.27158 -23.3995
ltibia 30.9186
lfoot -16.291 0.934209
ltoes -7.69357
3313
root 8.47003 17.9035 7.17725 541.333 -17.8276 174.37
lowerback 12.6178 1.16578 1.94545
upperback 1.93397 1.64715 0.16619
thorax -4.98748 0.705312 -1.19102
lowerneck -16.4059 4.77952 -11.5411
upperneck 43.3023 6.35094 1.9973
head 18.7426 -0.626116 3.7481
rclavicle -3.39922e-014 0
rhumerus -35.6523 -14.3071 -69.6129
rradius 41.5559
rwrist 2.26486
rhand -15.8837 9.77186
rfingers 7.12502
rthumb 10.3123 -19.9553
lclavicle -3.39922e-014 0
lhumerus -36.7325 12.8851 77.5618
lradius 35.1738
lwrist -5.82811
lhand -22.349 18.893
lfingers 7.12502
lthumb 4.07178 48.8338
rfemur -7.63708 -1.85702 14.36
rtibia 32.7661
rfoot -20.1332 -2.7327
rtoes -4.41722
lfemur -11.9263 -3.45331 -23.1109
ltibia 31.0003
lfoot -16.0207 1.11904
ltoes -8.47791
3314
root 8.43576 17.9155 7.22175 541.323 -17.7262 174.305
lowerback 12.6199 1.1608 1.82797
upperback 1.96084 1.62152 0.150384
thorax -4.96418 0.694258 -1.13677
lowerneck -16.3773 4.77666 -11.5105
upperneck 43.31 6.30558 2.02232
head 18.7427 -0.638657 3.74499
rclavicle 1.15295e-014 3.18055e-015
rhumerus -35.6746 -14.698 -69.5061
rradius 41.877
rwrist 2.02463
rhand -15.7978 9.61405
rfingers 7.12502
rthumb 10.3952 -20.109
lclavicle 1.15295e-014 3.18055e-015
lhumerus -36.7306 12.8898 77.4851
lradius 35.1661
lwrist -5.44149
lhand -22.4074 18.772
lfingers 7.12502
lthumb 4.01532 48.7139
rfemur -7.61014 -1.67937 14.1193
rtibia 32.513
rfoot -19.8811 -2.67025
rtoes -4.23817
lfemur -11.8279 -3.65304 -22.7008
ltibia 31.0335
lfoot -15.7852 1.2361
ltoes -8.9298
3315
root 8.40062 17.9275 7.26559 541.294 -17.6444 174.333
lowerback 12.6231 1.13739 1.79188
upperback 1.96392 1.58575 0.163542
thorax -4.96525 0.677097 -1.09677
lowerneck -16.2384 4.77241 -11.5146
upperneck 43.2434 6.24703 2.05873
head 18.6645 -0.650916 3.74476
rclavicle 1.92821e-014 2.54444e-014
rhumerus -35.5876 -14.9565 -69.4763
rradius 42.0341
rwrist 1.52706
rhand -15.8097 9.13054
rfingers 7.12502
rthumb 10.3837 -20.5931
lclavicle 1.92821e-014 2.54444e-014
lhumerus -36.8319 12.7887 77.4166
lradius 35.2855
lwrist -4.93362
lhand -22.4684 19.3417
lfingers 7.12502
lthumb 3.95646 49.2848
rfemur -7.60432 -1.46641 13.9945
rtibia 32.2687
rfoot -19.7562 -2.73097
rtoes -4.35181
lfemur -11.7007 -3.94703 -22.1606
ltibia 31.0162
lfoot -15.5836 1.18738
ltoes -8.79936
3316
root 8.36211 17.9341 7.30569 541.246 -17.5363 174.331
lowerback 12.607 1.12297 1.73417
upperback 1.99839 1.55553 0.163444
thorax -4.92261 0.662837 -1.05848
lowerneck -16.1795 4.73184 -11.5537
upperneck 43.1344 6.18121 2.08812
head 18.5836 -0.665099 3.74931
rclavicle 4.37326e-014 2.06736e-014
rhumerus -35.4615 -15.0485 -69.4899
rradius 42.1212
rwrist 0.947172
rhand -15.8726 8.85636
rfingers 7.12502
rthumb 10.323 -20.8703
lclavicle 4.37326e-014 2.06736e-014
lhumerus -36.882 12.7933 77.2965
lradius 35.4241
lwrist -4.58943
lhand -22.2636 20.2145
lfingers 7.12502
lthumb 4.1542 50.1537
rfemur -7.57334 -1.34778 13.8022
rtibia 32.0811
rfoot -19.7717 -2.72515
rtoes -4.90713
lfemur -11.4403 -4.21216 -21.6533
ltibia 30.8622
lfoot -15.4057 1.09043
ltoes -8.66763
3317
root 8.32308 17.9453 7.34349 541.16 -17.3853 174.214
lowerback 12.6444 1.13957 1.57863
upperback 2.06385 1.54772 0.0972247
thorax -4.8771 0.659803 -1.03866
lowerneck -16.2618 4.70452 -11.5686
upperneck 43.1543 6.11752 2.18564
head 18.6164 -0.681124 3.79117
rclavicle -3.1408e-014 -3.4191e-014
rhumerus -35.318 -15.1675 -69.5767
rradius 42.1551
rwrist 0.5979
rhand -15.9936 8.98511
rfingers 7.12502
rthumb 10.2064 -20.7473
lclavicle -3.1408e-014 -3.4191e-014
lhumerus -36.911 12.8277 77.1182
lradius 35.5662
lwrist -4.44185
lhand -21.9078 21.178
lfingers 7.12502
lthumb 4.49784 51.1102
rfemur -7.52728 -1.26995 13.4761
rtibia 31.9042
rfoot -19.7271 -2.60724
rtoes -4.2094
lfemur -11.0649 -4.46518 -21.2676
ltibia 30.6946
lfoot -15.2773 1.01397
ltoes -9.06641
3318
root 8.28383 17.9737 7.38185 541.132 -17.1746 174.176
lowerback 12.677 1.17619 1.47765
upperback 2.055 1.58118 0.0552673
thorax -4.90515 0.677378 -1.03203
lowerneck -16.2712 4.68721 -11.5441
upperneck 43.2141 6.03986 2.23574
head 18.661 -0.712437 3.79756
rclavicle 4.37326e-014 9.54166e-015
rhumerus -35.3447 -15.2485 -69.696
rradius 42.4173
rwrist 0.158658
rhand -16.2166 8.89998
rfingers 7.12502
rthumb 9.99118 -20.8429
lclavicle 4.37326e-014 9.54166e-015
lhumerus -37.0196 12.7339 76.9589
lradius 35.6913
lwrist -4.18969
lhand -21.6395 21.9306
lfingers 7.12502
lthumb 4.75692 51.8572
rfemur -7.76358 -1.11399 13.2525
rtibia 31.7508
rfoot -19.5695 -2.44748
rtoes -0.783526
lfemur -10.7444 -4.84136 -20.7948
ltibia 30.4917
lfoot -14.999 1.02605
ltoes -9.26469
3319
root 8.2419 17.979 7.42735 541.062 -16.9739 174.308
lowerback 12.7215 1.20394 1.59582
upperback 2.03298 1.63532 0.0510081
thorax -4.94776 0.701662 -1.1134
lowerneck -16.2429 4.63984 -11.5939
upperneck 43.2174 5.92751 2.32499
head 18.6583 -0.755333 3.82714
rclavicle -3.69739e-014 2.38542e-014
rhumerus -35.4823 -15.2394 -69.794
rradius 42.7009
rwrist -0.341506
rhand -16.4814 8.5335
rfingers 7.12502
rthumb 9.73574 -21.2215
lclavicle -3.69739e-014 2.38542e-014
lhumerus -37.0784 12.7951 76.7549
lradius 35.7114
lwrist -4.09965
lhand -21.9239 20.4491
lfingers 7.12502
lthumb 4.48228 50.3817
rfemur -7.74415 -0.825294 13.1832
rtibia 31.614
rfoot -19.5818 -2.28213
rtoes 1.88329
lfemur -10.4852 -5.20131 -20.1385
ltibia 30.2835
lfoot -14.6428 0.960364
ltoes -10.0394
3320
root 8.19679 17.9821 7.47074 540.917 -16.8059 174.314
lowerback 12.8525 1.21603 1.64613
upperback 2.04691 1.6535 -0.0139826
thorax -5.00132 0.707318 -1.2157
lowerneck -16.1978 4.59748 -11.6392
upperneck 43.1945 5.80648 2.45444
head 18.6323 -0.790538 3.87289
rclavicle -2.08724e-014 1.82882e-014
rhumerus -35.4922 -15.23 -69.9184
rradius 42.6808
rwrist -0.551634
rhand -16.6026 8.10595
rfingers 7.12502
rthumb 9.61877 -21.6545
lclavicle -2.08724e-014 1.82882e-014
lhumerus -37.1095 12.9102 76.4881
lradius 35.7465
lwrist -3.79144
lhand -22.6252 19.2446
lfingers 7.12502
lthumb 3.80505 49.1904
rfemur -7.60785 -0.521559 12.971
rtibia 31.4835
rfoot -19.5313 -2.15648
rtoes 1.25051
lfemur -10.1269 -5.48034 -19.6186
ltibia 30.1281
lfoot -14.3695 0.739514
ltoes -11.2862
3321
root 8.1513 17.9941 7.51242 540.849 -16.6583 174.248
lowerback 12.9709 1.20373 1.547
upperback 2.03813 1.62246 -0.0441865
thorax -5.07886 0.691889 -1.1892
lowerneck -16.2243 4.62262 -11.6739
upperneck 43.2857 5.79522 2.55081
head 18.6877 -0.803693 3.92442
rclavicle -1.49089e-014 -1.35174e-014
rhumerus -35.4621 -15.1179 -70.0381
rradius 42.779
rwrist -0.611422
rhand -16.5564 7.54076
rfingers 7.12502
rthumb 9.66335 -22.2176
lclavicle -1.49089e-014 -1.35174e-014
lhumerus -37.1755 12.8922 76.3418
lradius 35.8224
lwrist -3.14397
lhand -23.116 20.042
lfingers 7.12502
lthumb 3.33105 49.9957
rfemur -7.65047 -0.382409 12.7008
rtibia 31.3361
rfoot -19.4713 -2.0977
rtoes 0.0706531
lfemur -9.8325 -5.86395 -19.1598
ltibia 30.085
lfoot -14.257 0.391862
ltoes -11.0436
